<mxfile host="Electron" modified="2023-11-11T08:18:13.168Z" agent="Mozilla/5.0 (Windows NT 10.0; Win64; x64) AppleWebKit/537.36 (KHTML, like Gecko) draw.io/22.0.2 Chrome/114.0.5735.289 Electron/25.8.4 Safari/537.36" etag="BAxxU3iEDy2S5RkIY-lM" version="22.0.2" type="device">
  <diagram name="Page-1" id="n-pAh-l-EugVRj1NEV6R">
    <mxGraphModel dx="1036" dy="614" grid="1" gridSize="10" guides="1" tooltips="1" connect="1" arrows="1" fold="1" page="1" pageScale="1" pageWidth="850" pageHeight="1100" math="0" shadow="0">
      <root>
        <mxCell id="0" />
        <mxCell id="1" parent="0" />
        <mxCell id="LtLeyBARrr3Ba5k3Ia8P-1" value="" style="group" connectable="0" vertex="1" parent="1">
          <mxGeometry x="90" y="40" width="630" height="500" as="geometry" />
        </mxCell>
        <mxCell id="LtLeyBARrr3Ba5k3Ia8P-2" value="" style="sketch=0;shadow=0;dashed=0;html=1;strokeColor=none;fillColor=#2072B8;labelPosition=center;verticalLabelPosition=bottom;verticalAlign=top;outlineConnect=0;align=center;shape=mxgraph.office.databases.database;rotation=-90;" vertex="1" parent="LtLeyBARrr3Ba5k3Ia8P-1">
          <mxGeometry x="190" y="395" width="53.57" height="75" as="geometry" />
        </mxCell>
        <mxCell id="LtLeyBARrr3Ba5k3Ia8P-3" value="" style="rounded=0;whiteSpace=wrap;html=1;fillColor=#EEEEEE;" vertex="1" parent="LtLeyBARrr3Ba5k3Ia8P-1">
          <mxGeometry x="120" y="130" width="500" height="250" as="geometry" />
        </mxCell>
        <mxCell id="LtLeyBARrr3Ba5k3Ia8P-4" value="&lt;font style=&quot;font-size: 10px;&quot;&gt;&lt;b style=&quot;font-size: 10px;&quot;&gt;API Server&lt;/b&gt;&lt;/font&gt;" style="text;html=1;strokeColor=none;fillColor=none;align=center;verticalAlign=middle;whiteSpace=wrap;rounded=0;fontSize=10;" vertex="1" parent="LtLeyBARrr3Ba5k3Ia8P-1">
          <mxGeometry x="197.5" y="258" width="60" height="30" as="geometry" />
        </mxCell>
        <mxCell id="LtLeyBARrr3Ba5k3Ia8P-5" value="&lt;font style=&quot;font-size: 10px;&quot;&gt;Edit/Fetch rows from database&lt;/font&gt;" style="text;html=1;strokeColor=none;fillColor=none;align=center;verticalAlign=middle;whiteSpace=wrap;rounded=0;fontStyle=2;fontSize=10;" vertex="1" parent="LtLeyBARrr3Ba5k3Ia8P-1">
          <mxGeometry x="250.76999999999998" y="190" width="180" height="30" as="geometry" />
        </mxCell>
        <mxCell id="LtLeyBARrr3Ba5k3Ia8P-6" style="edgeStyle=orthogonalEdgeStyle;rounded=0;orthogonalLoop=1;jettySize=auto;html=1;" edge="1" parent="LtLeyBARrr3Ba5k3Ia8P-1" target="LtLeyBARrr3Ba5k3Ia8P-12">
          <mxGeometry relative="1" as="geometry">
            <mxPoint x="250" y="219.0344827586207" as="sourcePoint" />
            <mxPoint x="490" y="219.0344827586207" as="targetPoint" />
          </mxGeometry>
        </mxCell>
        <mxCell id="LtLeyBARrr3Ba5k3Ia8P-7" value="&lt;font style=&quot;font-size: 10px;&quot;&gt;Fetch User Code&lt;/font&gt;" style="text;html=1;strokeColor=none;fillColor=none;align=center;verticalAlign=middle;whiteSpace=wrap;rounded=0;fontStyle=2;fontSize=10;" vertex="1" parent="LtLeyBARrr3Ba5k3Ia8P-1">
          <mxGeometry x="419.77" y="10" width="210.23" height="30" as="geometry" />
        </mxCell>
        <mxCell id="LtLeyBARrr3Ba5k3Ia8P-8" value="&lt;font style=&quot;font-size: 10px;&quot;&gt;Fetch access token public key&lt;/font&gt;" style="text;html=1;strokeColor=none;fillColor=none;align=center;verticalAlign=middle;whiteSpace=wrap;rounded=0;fontStyle=2;fontSize=10;" vertex="1" parent="LtLeyBARrr3Ba5k3Ia8P-1">
          <mxGeometry x="270.21" y="25" width="90" height="30" as="geometry" />
        </mxCell>
        <mxCell id="LtLeyBARrr3Ba5k3Ia8P-9" value="&lt;font style=&quot;font-size: 10px;&quot;&gt;&lt;b style=&quot;font-size: 10px;&quot;&gt;Client/Server&lt;/b&gt;&lt;/font&gt;" style="text;html=1;strokeColor=none;fillColor=none;align=center;verticalAlign=middle;whiteSpace=wrap;rounded=0;fontSize=10;" vertex="1" parent="LtLeyBARrr3Ba5k3Ia8P-1">
          <mxGeometry y="205" width="90" height="30" as="geometry" />
        </mxCell>
        <mxCell id="LtLeyBARrr3Ba5k3Ia8P-10" value="" style="sketch=0;pointerEvents=1;shadow=0;dashed=0;html=1;strokeColor=none;fillColor=#2072B8;labelPosition=center;verticalLabelPosition=bottom;verticalAlign=top;outlineConnect=0;align=center;shape=mxgraph.office.servers.server_generic;" vertex="1" parent="LtLeyBARrr3Ba5k3Ia8P-1">
          <mxGeometry x="214.22999999999996" width="41.54" height="80" as="geometry" />
        </mxCell>
        <mxCell id="LtLeyBARrr3Ba5k3Ia8P-11" value="&lt;font style=&quot;font-size: 10px;&quot;&gt;Attempt History Service&lt;/font&gt;" style="text;html=1;strokeColor=none;fillColor=none;align=center;verticalAlign=middle;whiteSpace=wrap;rounded=0;fontStyle=4;fontSize=10;" vertex="1" parent="LtLeyBARrr3Ba5k3Ia8P-1">
          <mxGeometry x="120" y="130" width="80" height="30" as="geometry" />
        </mxCell>
        <mxCell id="LtLeyBARrr3Ba5k3Ia8P-12" value="" style="sketch=0;shadow=0;dashed=0;html=1;strokeColor=none;fillColor=#505050;labelPosition=center;verticalLabelPosition=bottom;verticalAlign=top;outlineConnect=0;align=center;shape=mxgraph.office.databases.database;" vertex="1" parent="LtLeyBARrr3Ba5k3Ia8P-1">
          <mxGeometry x="409.99999999999994" y="182.5" width="53.57" height="75" as="geometry" />
        </mxCell>
        <mxCell id="LtLeyBARrr3Ba5k3Ia8P-13" value="" style="sketch=0;pointerEvents=1;shadow=0;dashed=0;html=1;strokeColor=none;fillColor=#7FBA42;labelPosition=center;verticalLabelPosition=bottom;verticalAlign=top;outlineConnect=0;align=center;shape=mxgraph.office.servers.server_generic;" vertex="1" parent="LtLeyBARrr3Ba5k3Ia8P-1">
          <mxGeometry x="206.72999999999996" y="180" width="41.54" height="80" as="geometry" />
        </mxCell>
        <mxCell id="LtLeyBARrr3Ba5k3Ia8P-14" style="edgeStyle=orthogonalEdgeStyle;rounded=0;orthogonalLoop=1;jettySize=auto;html=1;" edge="1" parent="LtLeyBARrr3Ba5k3Ia8P-1" source="LtLeyBARrr3Ba5k3Ia8P-9" target="LtLeyBARrr3Ba5k3Ia8P-13">
          <mxGeometry relative="1" as="geometry" />
        </mxCell>
        <mxCell id="LtLeyBARrr3Ba5k3Ia8P-15" style="edgeStyle=orthogonalEdgeStyle;rounded=0;orthogonalLoop=1;jettySize=auto;html=1;" edge="1" parent="LtLeyBARrr3Ba5k3Ia8P-1" source="LtLeyBARrr3Ba5k3Ia8P-13" target="LtLeyBARrr3Ba5k3Ia8P-10">
          <mxGeometry relative="1" as="geometry">
            <mxPoint x="227.51724137931046" y="180.16347699909795" as="sourcePoint" />
            <mxPoint x="270" y="80" as="targetPoint" />
            <Array as="points">
              <mxPoint x="270" y="200" />
              <mxPoint x="270" y="40" />
            </Array>
          </mxGeometry>
        </mxCell>
        <mxCell id="LtLeyBARrr3Ba5k3Ia8P-16" value="&lt;font style=&quot;font-size: 10px;&quot;&gt;&lt;b style=&quot;font-size: 10px;&quot;&gt;User Service&lt;/b&gt;&lt;/font&gt;" style="text;html=1;strokeColor=none;fillColor=none;align=center;verticalAlign=middle;whiteSpace=wrap;rounded=0;fontSize=10;" vertex="1" parent="LtLeyBARrr3Ba5k3Ia8P-1">
          <mxGeometry x="190" y="80" width="90" height="30" as="geometry" />
        </mxCell>
        <mxCell id="LtLeyBARrr3Ba5k3Ia8P-17" style="edgeStyle=orthogonalEdgeStyle;rounded=0;orthogonalLoop=1;jettySize=auto;html=1;" edge="1" parent="LtLeyBARrr3Ba5k3Ia8P-1" source="LtLeyBARrr3Ba5k3Ia8P-19" target="LtLeyBARrr3Ba5k3Ia8P-2">
          <mxGeometry relative="1" as="geometry">
            <Array as="points">
              <mxPoint x="217" y="310" />
            </Array>
          </mxGeometry>
        </mxCell>
        <mxCell id="LtLeyBARrr3Ba5k3Ia8P-18" style="edgeStyle=orthogonalEdgeStyle;rounded=0;orthogonalLoop=1;jettySize=auto;html=1;" edge="1" parent="LtLeyBARrr3Ba5k3Ia8P-1" source="LtLeyBARrr3Ba5k3Ia8P-19" target="LtLeyBARrr3Ba5k3Ia8P-13">
          <mxGeometry relative="1" as="geometry">
            <Array as="points">
              <mxPoint x="284" y="290" />
              <mxPoint x="284" y="240" />
            </Array>
          </mxGeometry>
        </mxCell>
        <mxCell id="LtLeyBARrr3Ba5k3Ia8P-19" value="" style="sketch=0;pointerEvents=1;shadow=0;dashed=0;html=1;strokeColor=none;fillColor=#505050;labelPosition=center;verticalLabelPosition=bottom;verticalAlign=top;outlineConnect=0;align=center;shape=mxgraph.office.servers.server_generic;" vertex="1" parent="LtLeyBARrr3Ba5k3Ia8P-1">
          <mxGeometry x="510" y="256" width="41.54" height="80" as="geometry" />
        </mxCell>
        <mxCell id="LtLeyBARrr3Ba5k3Ia8P-20" value="&lt;b style=&quot;font-size: 10px;&quot;&gt;&lt;font style=&quot;font-size: 10px;&quot;&gt;Message Queue Consumer&lt;/font&gt;&lt;/b&gt;" style="text;html=1;strokeColor=none;fillColor=none;align=center;verticalAlign=middle;whiteSpace=wrap;rounded=0;fontSize=10;" vertex="1" parent="LtLeyBARrr3Ba5k3Ia8P-1">
          <mxGeometry x="495.39" y="342" width="70.77" height="30" as="geometry" />
        </mxCell>
        <mxCell id="LtLeyBARrr3Ba5k3Ia8P-21" value="&lt;b style=&quot;font-size: 10px;&quot;&gt;&lt;font style=&quot;font-size: 10px;&quot;&gt;Database&lt;/font&gt;&lt;/b&gt;" style="text;html=1;strokeColor=none;fillColor=none;align=center;verticalAlign=middle;whiteSpace=wrap;rounded=0;fontSize=10;" vertex="1" parent="LtLeyBARrr3Ba5k3Ia8P-1">
          <mxGeometry x="410.00000000000006" y="257.5" width="60" height="30" as="geometry" />
        </mxCell>
        <mxCell id="LtLeyBARrr3Ba5k3Ia8P-22" value="&lt;font style=&quot;font-size: 10px;&quot;&gt;&lt;b style=&quot;font-size: 10px;&quot;&gt;Editor Service&lt;/b&gt;&lt;/font&gt;" style="text;html=1;strokeColor=none;fillColor=none;align=center;verticalAlign=middle;whiteSpace=wrap;rounded=0;fontSize=10;" vertex="1" parent="LtLeyBARrr3Ba5k3Ia8P-1">
          <mxGeometry x="354" y="80" width="90" height="30" as="geometry" />
        </mxCell>
        <mxCell id="LtLeyBARrr3Ba5k3Ia8P-23" value="" style="sketch=0;pointerEvents=1;shadow=0;dashed=0;html=1;strokeColor=none;fillColor=#2072B8;labelPosition=center;verticalLabelPosition=bottom;verticalAlign=top;outlineConnect=0;align=center;shape=mxgraph.office.servers.server_generic;" vertex="1" parent="LtLeyBARrr3Ba5k3Ia8P-1">
          <mxGeometry x="378.23" width="41.54" height="80" as="geometry" />
        </mxCell>
        <mxCell id="LtLeyBARrr3Ba5k3Ia8P-24" style="edgeStyle=orthogonalEdgeStyle;rounded=0;orthogonalLoop=1;jettySize=auto;html=1;" edge="1" parent="LtLeyBARrr3Ba5k3Ia8P-1" source="LtLeyBARrr3Ba5k3Ia8P-19" target="LtLeyBARrr3Ba5k3Ia8P-23">
          <mxGeometry relative="1" as="geometry">
            <Array as="points">
              <mxPoint x="570" y="296" />
              <mxPoint x="570" y="40" />
            </Array>
          </mxGeometry>
        </mxCell>
        <mxCell id="LtLeyBARrr3Ba5k3Ia8P-25" value="&lt;font style=&quot;font-size: 10px;&quot;&gt;HTTP Requests&lt;/font&gt;" style="text;html=1;strokeColor=none;fillColor=none;align=center;verticalAlign=middle;whiteSpace=wrap;rounded=0;fontStyle=2;fontSize=10;" vertex="1" parent="LtLeyBARrr3Ba5k3Ia8P-1">
          <mxGeometry x="70" y="190" width="180" height="30" as="geometry" />
        </mxCell>
        <mxCell id="LtLeyBARrr3Ba5k3Ia8P-26" value="&lt;font style=&quot;font-size: 10px;&quot;&gt;&lt;b style=&quot;font-size: 10px;&quot;&gt;Room Service&lt;/b&gt;&lt;/font&gt;" style="text;html=1;strokeColor=none;fillColor=none;align=center;verticalAlign=middle;whiteSpace=wrap;rounded=0;fontSize=10;" vertex="1" parent="LtLeyBARrr3Ba5k3Ia8P-1">
          <mxGeometry x="183.57" y="470" width="60" height="30" as="geometry" />
        </mxCell>
        <mxCell id="LtLeyBARrr3Ba5k3Ia8P-27" value="&lt;div style=&quot;font-size: 10px;&quot;&gt;&lt;font style=&quot;font-size: 10px;&quot;&gt;Listens for Room Delete Events&lt;/font&gt;&lt;/div&gt;" style="text;html=1;strokeColor=none;fillColor=none;align=center;verticalAlign=middle;whiteSpace=wrap;rounded=0;fontStyle=2;fontSize=10;" vertex="1" parent="LtLeyBARrr3Ba5k3Ia8P-1">
          <mxGeometry x="220.20999999999998" y="336" width="99.79" height="30" as="geometry" />
        </mxCell>
      </root>
    </mxGraphModel>
  </diagram>
</mxfile>
